<?xml version="1.0" encoding="UTF-8"?>
<svg xmlns="http://www.w3.org/2000/svg" width="300" height="112.646" viewBox="0 0 300 112.646">
  <g transform="translate(19413.414 19208.994)">
    <rect width="300" height="112.646" transform="translate(-19413.414 -19208.994)" fill="none"></rect>
    <g transform="translate(-19389.047 -19194.918)">
      <path d="M-803.461-535.994h-16.055v66.355h16.055c6.429,0,9.9-3.65,9.9-9.815v-46.728C-793.562-532.26-796.947-535.994-803.461-535.994Zm5.065,55.176c0,4.168-2.261,6.6-6.774,6.6h-9.508v-57.2H-805c4.258,0,6.6,2.257,6.6,6.6Z" transform="translate(987.599 554.109)" fill="#f24150"></path>
      <path d="M-846.142-551.659a12.651,12.651,0,0,0-12.637,12.641,12.638,12.638,0,0,0,10.22,12.38v53.975h4.838v-53.975A12.639,12.639,0,0,0-833.5-539.019,12.654,12.654,0,0,0-846.142-551.659Zm0,20.241a7.611,7.611,0,0,1-7.6-7.6,7.611,7.611,0,0,1,7.6-7.6,7.611,7.611,0,0,1,7.606,7.6A7.612,7.612,0,0,1-846.142-531.418Z" transform="translate(995.18 557.133)" fill="#f24150"></path>
      <path d="M-961.851-469.639h4.838v-66.355h-4.838Z" transform="translate(1015.082 554.109)" fill="#f24150"></path>
      <path d="M-990.672-509.275h-32.308v-26.719h-4.839v66.355h4.839v-22.643h32.308v22.643h4.838v-66.355h-4.838Zm0,12.155h-32.308v-7.317h32.308Z" transform="translate(1027.819 554.109)" fill="#f24150"></path>
      <path d="M-734.813-535.995h-28.7c-6.429,0-9.9,3.651-9.9,9.816v46.727c0,6.078,3.386,9.814,9.9,9.814h25.965v0h2.739c6.429,0,9.9-3.651,9.9-9.816v-46.727C-724.915-532.261-728.3-535.995-734.813-535.995Zm5.065,55.176c0,3.958-2.042,6.346-6.106,6.58l0,.024h-26.126c-4.258,0-6.6-2.257-6.6-6.6v-44c0-4.17,2.261-6.6,6.774-6.6h25.456c4.257,0,6.6,2.257,6.6,6.6Z" transform="translate(978.698 554.109)" fill="#f24150"></path>
      <path d="M-881.286-500.636c6.427,0,9.9-3.651,9.9-9.816v-15.73c0-6.078-3.386-9.812-9.9-9.812h-15.376v66.355h4.838v-61.778h9c4.257,0,6.6,2.257,6.6,6.6v13c0,4.169-2.26,6.6-6.773,6.6h-6.371l1.92,4.578,13,31h5.22l-13.063-31Z" transform="translate(1002.495 554.109)" fill="#f24150"></path>
      <path d="M-920.386-534.376a10.926,10.926,0,0,0-6.157-1.618h-15.375v66.355h15.375a10.92,10.92,0,0,0,6.157-1.619,8.042,8.042,0,0,0,3.266-4.628,12.852,12.852,0,0,0,.474-3.565v-19.8c0-3.352-1.033-5.953-3-7.635l-.011.008v-.016l.011.008c1.97-1.683,3-4.285,3-7.635v-11.658a12.848,12.848,0,0,0-.474-3.565A8.046,8.046,0,0,0-920.386-534.376Zm-1.092,48.146v5.414a7.253,7.253,0,0,1-1.138,4.24c-1.088,1.557-2.938,2.359-5.467,2.359h-9v-30.221h9.89c3.8.363,5.712,2.72,5.712,6.546Zm0-33.174v3.535a6.6,6.6,0,0,1-1.7,4.844l-.005.006a5.223,5.223,0,0,1-.431.381l-.03.025c-.144.111-.3.216-.455.316-.019.011-.037.024-.056.034a5.419,5.419,0,0,1-.48.259c-.027.011-.052.027-.08.038-.161.075-.331.142-.5.205-.036.013-.069.027-.1.039-.172.059-.351.11-.533.157-.043.011-.083.024-.127.034-.182.044-.371.078-.564.11-.049.009-.094.02-.144.027-.2.03-.406.05-.615.067-.048,0-.09.012-.137.016-.264.018-.537.027-.818.027h-8.815v-22.132h9c2.529,0,4.378.8,5.467,2.359a7.255,7.255,0,0,1,1.138,4.239Z" transform="translate(1011.233 554.109)" fill="#f24150"></path>
      <path d="M-739.913-519.767h-2.239v0h-10.309c-3.943,0-5.918,2.125-5.918,5.767v30c0,3.793,2.049,5.766,5.769,5.766h13.133l0-.022c3.552-.2,5.335-2.289,5.335-5.748V-514C-734.143-517.795-736.194-519.767-739.913-519.767Zm1.337,33.192a3.36,3.36,0,0,1-3.474,3.742v.013h-8.143c-2.421,0-3.757-1.284-3.757-3.753v-24.855c0-2.372,1.287-3.754,3.855-3.754l7.762,0c2.421,0,3.756,1.284,3.756,3.754Z" transform="translate(975.795 550.975)" fill="#f24150"></path>
      <path d="M-951.909-558.443l-9.469,10.759a1.219,1.219,0,0,0-.1,1.482h4.265l9.408-10.69a1.217,1.217,0,0,0,.05-1.551Z" transform="translate(1015.049 558.443)" fill="#f24150"></path>
    </g>
  </g>
</svg>
